<svg xmlns="http://www.w3.org/2000/svg" xmlns:xlink="http://www.w3.org/1999/xlink" width="200" height="200" viewBox="0 0 200 200">
  <defs>
    <clipPath id="clip-Access_Keys">
      <rect width="200" height="200"/>
    </clipPath>
  </defs>
  <g id="Access_Keys" data-name="Access Keys" clip-path="url(#clip-Access_Keys)">
    <g id="Group_34497" data-name="Group 34497" transform="translate(503.465 -1670.846)">
      <path id="Path_15817" data-name="Path 15817" d="M-382.412,1825.484c0-8.514-.032-17.028.023-25.543.013-1.958-.2-3.129-2.641-3.574-4.4-.8-6.737-5.452-5.261-9.8a31.956,31.956,0,0,1,1.869-3.977c1.7-3.37.285-5.764-3.6-6.014-2.428-.159-5.1-.944-7.224-.2-2.3.815-1.743,4.076-2.734,6.154-2.378,4.993-7.844,6.458-12.2,2.934-1.653-1.338-2.612-1.108-3.879.294-1.443,1.595-3.089,3-4.534,4.6-2.027,2.235-4.29,3.989-7.378,4.435-1.687.244-2.422,1.246-2.7,2.952-1.065,6.652-1.107,6.692-7.7,7.663-1.7.253-2.22,1.2-2.548,2.683-1.5,6.78-1.519,6.809-8.278,7.835-1.274.193-1.945.626-2.032,1.968a28.317,28.317,0,0,1-.511,3.479c-.564,2.969-2.151,4.446-5.226,4.5-5.086.095-10.185.2-15.263-.029a10.726,10.726,0,0,1-10.109-12.534,20.993,20.993,0,0,0,.307-2.325c.267-6.8,3.123-12.045,8.18-16.79,11.127-10.443,21.7-21.475,32.582-32.183,1.646-1.621,2.045-2.765.74-4.93-2.369-3.932-.2-8.715,4.35-10.79,1.991-.907,5.029-.472,5.84-2.7.672-1.847-.147-4.228-.266-6.372-1.1-19.844,15.946-39,35.823-40.244,2.236-.141,4.455-.676,6.723-.218,1.9.384,1.91-1.209,2.309-2.355,4.272-12.268,12.717-19.97,25.386-22.813,13.166-2.956,27.187,3,34.652,14.479a32.749,32.749,0,0,1-.8,37.222c-1.35,1.836-1.531,3.114-.489,5.188a39.7,39.7,0,0,1-10.874,49.184c-1.812,1.442-2.356,2.59-1.03,4.55a20.829,20.829,0,0,1,1.722,3.4c2.22,5.133.049,9.786-5.405,11.058-2.257.526-3.116,1.451-2.923,3.74.181,2.138-.05,4.308.061,6.455a10.657,10.657,0,0,1-1.768,6.966c-1.229,1.739-1.143,3.236.163,5.029,3.693,5.07,3.67,5.166-.2,10.338-1.1,1.472-.943,2.486.105,3.86,3.855,5.048,3.878,5.556.041,10.34-1.2,1.492-1.281,2.483-.043,4.024,3.9,4.853,3.747,6.3-.62,10.686-2.832,2.843-5.616,5.738-8.535,8.486-5.742,5.409-12.456,4.823-17.2-1.413-1.125-1.48-2.149-3.042-3.326-4.479a16.252,16.252,0,0,1-3.632-11.155C-382.3,1841.536-382.412,1833.509-382.412,1825.484Zm9.1-2.516c0,7.828.436,15.688-.147,23.47-.415,5.546,2.113,9.271,5.284,13.059,1.136,1.354,2.178,1.438,3.414.169,1.774-1.822,3.525-3.679,5.418-5.372,1.487-1.329,1.442-2.377.242-3.938-3.531-4.593-3.55-5.282.025-9.6,1.456-1.758,1.476-2.953.012-4.732-3.55-4.31-3.58-5.324-.079-9.636,1.615-1.989,1.655-3.444-.054-5.269-1.946-2.074-3.063-4.57-1.14-7.145,3.088-4.137,3.461-8.767,3.162-13.635a41.036,41.036,0,0,1,.027-5.281c.231-3.441,1.865-6.152,5.238-7.028,2.817-.732,2.405-1.784,1.365-3.774-2.483-4.75-2.114-8.245.933-10.937.875-.774,1.894-1.383,2.846-2.069a30.02,30.02,0,0,0,10.883-34.93c-1.339-3.53-1.489-3.609-4.738-1.95a23.782,23.782,0,0,1-7.132,2.623,5.9,5.9,0,0,0-4.98,3.776,13.431,13.431,0,0,1-13.743,7.518,13.841,13.841,0,0,1-11.784-11.81,13.6,13.6,0,0,1,8-14.051,13.105,13.105,0,0,1,15.862,3.824c1.344,1.646,2.65,2.1,4.546,1.348,1.086-.434,2.243-.7,3.318-1.154,3.284-1.392,3.332-1.918.481-4.157a30.413,30.413,0,0,0-34.689-1.719,30.751,30.751,0,0,0-14.047,31.563,30.083,30.083,0,0,0,13.332,19.912c4.477,3.045,5.382,6.523,3.09,11.395a22.934,22.934,0,0,1-1.048,2.1c-.729,1.209-.474,1.915.883,2.428,3.944,1.491,5.269,4.576,5.239,8.587C-373.353,1805.356-373.309,1814.162-373.308,1822.969ZM-380.58,1709.7c-.355-1.264-1.255-1.315-1.935-1.567a30.48,30.48,0,0,0-38.372,16.661c-2.664,6.261-2.911,12.666-1.738,19.277.836,4.709-1.077,7.721-5.545,9.3-.922.327-1.856.617-2.791.905-.839.26-1.56.7-1.075,1.667,2.733,5.429-.538,8.809-3.99,12.241-11.452,11.39-22.7,22.987-34.364,34.157-3.61,3.459-4.323,7.4-4.621,11.817-.116,1.715.614,2.577,2.364,2.566q3.963-.026,7.928,0c1.422.01,2.079-.674,2.343-2.063,1.256-6.618,1.269-6.686,7.723-7.706,1.7-.269,2.243-.929,2.449-2.574.754-6.049,1.192-6.515,6.955-7.6,2.19-.41,3.473-1.233,3.612-3.729.168-3,1.3-5.7,4.742-6.191,4.745-.674,8.276-3.154,11.271-6.717a40.541,40.541,0,0,1,4.164-4.134c2.493-2.211,5.613-3.132,8.393-1.349,3.106,1.991,3.5.331,4.071-1.989.785-3.171,2.52-5.82,5.879-6.2,2.877-.323,2.479-1.186,1.583-3.2-7.729-17.37-2.907-36.451,12.072-48.221A53.2,53.2,0,0,1-380.58,1709.7Zm48.63-4.857a24.086,24.086,0,0,0-22.477-24.481c-10.25-.875-21,6.3-24.079,16.075-.352,1.118-.88,2.3.782,2.9a39.066,39.066,0,0,1,10.561,6.228,4.345,4.345,0,0,0,2.746.82,39.649,39.649,0,0,1,26.465,10.225c1.54,1.362,2.208.936,3.047-.572A22.743,22.743,0,0,0-331.95,1704.843Zm-28.735,29.933a3.648,3.648,0,0,0-3.589-4.062,3.8,3.8,0,0,0-4.3,3.7,4.148,4.148,0,0,0,3.937,4.207A4.033,4.033,0,0,0-360.685,1734.775Z" transform="translate(0)" fill="#fff" fill-rule="evenodd"/>
    </g>
  </g>
</svg>
