<svg xmlns="http://www.w3.org/2000/svg" xmlns:xlink="http://www.w3.org/1999/xlink" width="200" height="200" viewBox="0 0 200 200">
  <defs>
    <clipPath id="clip-Analytics_Dashboard">
      <rect width="200" height="200"/>
    </clipPath>
  </defs>
  <g id="Analytics_Dashboard" data-name="Analytics Dashboard" clip-path="url(#clip-Analytics_Dashboard)">
    <g id="Group_34060" data-name="Group 34060" transform="translate(1624.713 -1841.192)">
      <path id="Path_15818" data-name="Path 15818" d="M-1539.579,1841.376c26.66-.114,47.429,8.551,64.516,25.6,15.212,15.185,23.606,33.653,25.287,55.23,1.625,20.874-4.1,39.6-15.489,56.853a39.986,39.986,0,0,1-3.689,4.71c-1.4,1.557-1.273,2.623.257,4.14q20.382,20.194,40.615,40.541c.765.765,1.485,1.581,2.3,2.288,1.363,1.184,1.415,2.228.034,3.494a62.137,62.137,0,0,0-5.275,5.3c-1.628,1.9-2.829,1.9-4.6.07-5.666-5.858-11.49-11.562-17.252-17.325-8.292-8.29-16.645-16.522-24.828-24.92-1.783-1.831-2.927-1.679-4.728-.2a82.992,82.992,0,0,1-30.1,15.676c-20.5,5.9-40.71,4.762-60.139-4.138-27.552-12.62-44.543-34.1-50.331-63.743-4.45-22.785-.2-44.367,12.671-63.924,13.575-20.625,32.749-33.111,56.756-38.334A57.942,57.942,0,0,1-1539.579,1841.376Zm-71.721,87.363c-.144,40.585,32.027,74.073,74.106,74.428,41,.348,74.552-33.163,74.547-74.046-.006-40.937-32.142-74.554-74.182-74.7C-1580.064,1854.272-1611.562,1889.551-1611.3,1928.739Z" transform="translate(-0.001 0)" fill="#fff" fill-rule="evenodd"/>
      <path id="Path_15819" data-name="Path 15819" d="M-1450.4,1959.262c0,13.553-.027,27.1.031,40.657.01,2.107-.625,3.1-2.86,2.923a32.037,32.037,0,0,0-4.983.021c-2.28.178-3.046-.739-3.025-3.022.095-9.727.038-19.456.039-29.185q0-25.692.012-51.385c0-3.324.07-3.424,3.3-3.437,8.88-.041,7.4-.963,7.463,7.261C-1450.328,1935.148-1450.4,1947.205-1450.4,1959.262Z" transform="translate(-81.871 -37.284)" fill="#fff" fill-rule="evenodd"/>
      <path id="Path_15820" data-name="Path 15820" d="M-1416.906,1984.011c0,10.643.023,21.287-.013,31.931-.011,3.228-.171,3.373-3.425,3.358-8.823-.044-7.526,1.287-7.567-7.414-.094-19.625-.03-39.251-.029-58.875,0-4.237.055-4.357,4.325-4.282,7.258.127,6.769-1.16,6.73,6.843-.043,9.48-.01,18.96-.01,28.439Z" transform="translate(-98.533 -53.777)" fill="#fff" fill-rule="evenodd"/>
      <path id="Path_15821" data-name="Path 15821" d="M-1383.328,2006.307c0,8.314-.06,16.631.04,24.943.026,2.256-.693,3.222-3,3.048a52.967,52.967,0,0,0-5.485-.051c-1.73.049-2.339-.763-2.336-2.421q.035-25.318-.008-50.635c0-1.9.682-2.75,2.637-2.643a52.984,52.984,0,0,0,5.734.027c2.106-.109,2.45,1.013,2.439,2.787C-1383.357,1989.678-1383.329,1997.992-1383.328,2006.307Z" transform="translate(-115.483 -68.712)" fill="#fff" fill-rule="evenodd"/>
      <path id="Path_15822" data-name="Path 15822" d="M-1495.037,2020.133c0-6.729.057-13.459-.026-20.187-.027-2.256.842-3.222,3.084-3.054,2.069.156,4.143.258,6.216.326,1.316.043,1.646.732,1.65,1.936.028,9.194.356,18.4.055,27.578-.158,4.809.4,9.61-.15,14.419-.2,1.716-.821,2.359-2.459,2.308-1.826-.057-3.661-.126-5.482-.011-2.148.137-2.952-.7-2.923-2.877C-1494.981,2033.759-1495.039,2026.946-1495.037,2020.133Z" transform="translate(-64.924 -77.894)" fill="#fff" fill-rule="evenodd"/>
      <path id="Path_15823" data-name="Path 15823" d="M-1517.739,2041.835c0,4.492-.052,8.984.022,13.476.03,1.943-.755,2.706-2.672,2.615-2.075-.1-4.158-.03-6.238-.043-1.206-.007-1.774-.588-1.845-1.832-.332-5.8-.264-11.616-.024-17.409.14-3.41-.575-6.779-.075-10.21.271-1.864.89-2.71,2.761-2.643,1.911.068,3.824.082,5.738.088,1.677,0,2.364.827,2.349,2.481C-1517.764,2032.851-1517.737,2037.343-1517.739,2041.835Z" transform="translate(-48.058 -92.373)" fill="#fff" fill-rule="evenodd"/>
    </g>
  </g>
</svg>
