<svg xmlns="http://www.w3.org/2000/svg" width="30.936" height="39.097" viewBox="0 0 30.936 39.097">
  <path id="bell" d="M83.731,31.113A6.075,6.075,0,0,1,81.885,28.6c-1.591-3.366-1.924-8.108-1.924-11.493,0-.015,0-.029,0-.044A11.093,11.093,0,0,0,73.43,7V4.355A4.357,4.357,0,0,0,69.082,0h-.36a4.357,4.357,0,0,0-4.348,4.355V7a11.093,11.093,0,0,0-6.531,10.105c0,3.385-.334,8.127-1.924,11.493a6.074,6.074,0,0,1-1.846,2.514,1.113,1.113,0,0,0-.612,1.267,1.165,1.165,0,0,0,1.149.9h8.4a5.9,5.9,0,0,0,11.794,0h8.4a1.165,1.165,0,0,0,1.149-.9A1.114,1.114,0,0,0,83.731,31.113ZM66.665,4.355a2.061,2.061,0,0,1,2.057-2.061h.36A2.061,2.061,0,0,1,71.14,4.355v1.9a11.094,11.094,0,0,0-4.475,0v-1.9ZM68.9,36.8A3.614,3.614,0,0,1,65.3,33.275h7.212A3.614,3.614,0,0,1,68.9,36.8Zm4.612-5.822H57.22a12.007,12.007,0,0,0,.6-1.054c1.535-3.027,2.314-7.34,2.314-12.82a8.768,8.768,0,1,1,17.536,0c0,.014,0,.028,0,.042,0,5.458.783,9.755,2.314,12.774a12.013,12.013,0,0,0,.6,1.054Z" transform="translate(-53.434 0)" fill="#2b55e0"/>
</svg>
