<svg xmlns="http://www.w3.org/2000/svg" xmlns:xlink="http://www.w3.org/1999/xlink" width="200" height="200" viewBox="0 0 200 200">
  <defs>
    <clipPath id="clip-Brains">
      <rect width="200" height="200"/>
    </clipPath>
  </defs>
  <g id="Brains" clip-path="url(#clip-Brains)">
    <path id="brain_2_" data-name="brain (2)" d="M187.981,67.377a33.793,33.793,0,0,0-29.448-40.262C148.356,3.09,115.506-.943,100.01,20.686,84.52-.935,51.67,3.079,41.488,27.115A33.794,33.794,0,0,0,12.04,67.377a33.749,33.749,0,0,0-3.812,47.892c-20.216,27.225-1,66.906,33.875,66.906a33.732,33.732,0,0,0,57.907,5.086,33.733,33.733,0,0,0,57.907-5.086c34.789.077,54.1-39.673,33.875-66.906A33.749,33.749,0,0,0,187.981,67.377ZM71.764,188.594c-17.62,0-27.786-20.7-16.305-34.6a6.305,6.305,0,1,0-9.72-8.033A33.781,33.781,0,0,0,38.061,169.2C14.153,166.656,3.5,138.07,19.309,120.448a29.337,29.337,0,0,1,18.748-9.625,33.728,33.728,0,0,0,1.634,12.217,6.305,6.305,0,1,0,11.986-3.919A21.164,21.164,0,0,1,65.2,92.459a6.305,6.305,0,0,0-3.919-11.986A34.215,34.215,0,0,0,57.1,82.16a16.486,16.486,0,0,1,4.822-18.673,6.305,6.305,0,0,0-8.046-9.71,29.068,29.068,0,0,0-7.1,36.086c-4.253,4.7-5.24,8.182-5.6,8.182a41.739,41.739,0,0,0-24.764,8.107,21.129,21.129,0,0,1,5.387-31.1,6.3,6.3,0,0,0,2.6-7.471c-4.632-12.971,4.1-28.227,20.829-28.227a6.306,6.306,0,0,0,6.093-4.691A21.141,21.141,0,0,1,92.9,40.092V167.454a21.163,21.163,0,0,1-21.14,21.14ZM182,106.152a41.678,41.678,0,0,0-24.886-8.1,33.428,33.428,0,0,0-5.473-8.188,29.066,29.066,0,0,0-7.1-36.086,6.305,6.305,0,0,0-8.046,9.71,16.485,16.485,0,0,1,4.822,18.673,34.247,34.247,0,0,0-4.182-1.687,6.305,6.305,0,0,0-3.919,11.986,21.163,21.163,0,0,1,13.525,26.662,6.305,6.305,0,1,0,11.986,3.919,33.721,33.721,0,0,0,1.634-12.217,29.353,29.353,0,0,1,0,58.374,33.776,33.776,0,0,0-7.677-23.231,6.305,6.305,0,1,0-9.72,8.033c11.46,13.868,1.323,34.6-16.305,34.6a21.164,21.164,0,0,1-21.14-21.14V40.092a21.142,21.142,0,0,1,41.574-5.429,6.29,6.29,0,0,0,6.3,4.688,21.16,21.16,0,0,1,20.62,28.231,6.3,6.3,0,0,0,2.6,7.471,21.13,21.13,0,0,1,5.386,31.1Z" transform="translate(0.003 -3.556)" fill="#fff"/>
  </g>
</svg>
