<svg height="512" viewBox="0 0 128 128" width="512" xmlns="http://www.w3.org/2000/svg"><g id="Circle_Grid" data-name="Circle Grid"><circle cx="64" cy="64" fill="#f6c863" r="64"/></g><g id="icon"><path d="m70.705 48.428h32.225v55.413h-32.225z" fill="#dbd8dd"/><rect fill="#62667c" height="4.66" rx=".682" width="49.332" x="55.694" y="43.767"/><path d="m24.575 25.41h46.131v78.43h-46.131z" fill="#dbd8dd"/><rect fill="#62667c" height="4.66" rx=".682" width="49.332" x="22.974" y="22"/><path d="m29.349 31.434h9.482v9.482h-9.482z" fill="#69b0ee"/><g fill="#eeefee" opacity=".5"><path d="m34.812 40.916h-.507l2.984-9.482h.507z"/><path d="m32.673 40.916h-2.289l2.983-9.482h2.29z"/></g><path d="m42.899 31.434h9.482v9.482h-9.482z" fill="#69b0ee"/><g fill="#eeefee" opacity=".5"><path d="m48.362 40.916h-.507l2.984-9.482h.507z"/><path d="m46.223 40.916h-2.289l2.984-9.482h2.289z"/></g><path d="m56.449 31.434h9.482v9.482h-9.482z" fill="#69b0ee"/><g fill="#eeefee" opacity=".5"><path d="m61.913 40.916h-.507l2.983-9.482h.507z"/><path d="m59.774 40.916h-2.29l2.984-9.482h2.289z"/></g><path d="m29.349 47.236h9.482v9.482h-9.482z" fill="#69b0ee"/><g fill="#eeefee" opacity=".5"><path d="m34.812 56.718h-.507l2.984-9.482h.507z"/><path d="m32.673 56.718h-2.289l2.983-9.482h2.29z"/></g><path d="m42.899 47.236h9.482v9.482h-9.482z" fill="#69b0ee"/><g fill="#eeefee" opacity=".5"><path d="m48.362 56.718h-.507l2.984-9.482h.507z"/><path d="m46.223 56.718h-2.289l2.984-9.482h2.289z"/></g><path d="m56.449 47.236h9.482v9.482h-9.482z" fill="#69b0ee"/><g fill="#eeefee" opacity=".5"><path d="m61.913 56.718h-.507l2.983-9.482h.507z"/><path d="m59.774 56.718h-2.29l2.984-9.482h2.289z"/></g><path d="m29.349 63.038h9.482v9.482h-9.482z" fill="#69b0ee"/><g fill="#eeefee" opacity=".5"><path d="m34.812 72.52h-.507l2.984-9.482h.507z"/><path d="m32.673 72.52h-2.289l2.983-9.482h2.29z"/></g><path d="m42.899 63.038h9.482v9.482h-9.482z" fill="#69b0ee"/><g fill="#eeefee" opacity=".5"><path d="m48.362 72.52h-.507l2.984-9.482h.507z"/><path d="m46.223 72.52h-2.289l2.984-9.482h2.289z"/></g><path d="m56.449 63.038h9.482v9.482h-9.482z" fill="#69b0ee"/><g fill="#eeefee" opacity=".5"><path d="m61.913 72.52h-.507l2.983-9.482h.507z"/><path d="m59.774 72.52h-2.29l2.984-9.482h2.289z"/></g><path d="m74.172 52.769h10.412v10.412h-10.412z" fill="#69b0ee"/><g fill="#eeefee" opacity=".4"><path d="m80.171 63.181h-.556l3.276-10.412h.557z"/><path d="m77.822 63.181h-2.513l3.276-10.412h2.514z"/></g><path d="m89.051 52.769h10.412v10.412h-10.412z" fill="#69b0ee"/><g fill="#eeefee" opacity=".4"><path d="m95.05 63.181h-.556l3.276-10.412h.557z"/><path d="m92.701 63.181h-2.513l3.276-10.412h2.514z"/></g><path d="m74.172 69.243h10.412v10.412h-10.412z" fill="#69b0ee"/><g fill="#eeefee" opacity=".4"><path d="m80.171 79.655h-.556l3.276-10.412h.557z"/><path d="m77.822 79.655h-2.513l3.276-10.412h2.514z"/></g><path d="m89.051 69.243h10.412v10.412h-10.412z" fill="#69b0ee"/><g fill="#eeefee" opacity=".4"><path d="m95.05 79.655h-.556l3.276-10.412h.557z"/><path d="m92.701 79.655h-2.513l3.276-10.412h2.514z"/></g><path d="m74.172 85.716h10.412v10.412h-10.412z" fill="#69b0ee"/><g fill="#eeefee" opacity=".4"><path d="m80.171 96.128h-.556l3.276-10.412h.557z"/><path d="m77.822 96.128h-2.513l3.276-10.412h2.514z"/></g><path d="m89.051 85.716h10.412v10.412h-10.412z" fill="#69b0ee"/><g fill="#eeefee" opacity=".4"><path d="m95.05 96.128h-.556l3.276-10.412h.557z"/><path d="m92.701 96.128h-2.513l3.276-10.412h2.514z"/></g><path d="m70.705 48.428h2.131v52.685h-2.131z" fill="#bbbbcd"/><path d="m36.614 78.133h22.052v23.34h-22.052z" fill="#9a9eaf"/><rect fill="#62667c" height="4.888" rx=".682" width="82.968" x="22.516" y="101.112"/><rect fill="#62667c" height="3.056" rx=".614" width="25.605" x="34.838" y="76.56"/><path d="m47.214 79.597h.853v21.515h-.853z" fill="#828a9e"/></g></svg>