<svg xmlns="http://www.w3.org/2000/svg" width="20.596" height="20.614" viewBox="0 0 20.596 20.614">
  <path id="Path_7733" data-name="Path 7733" d="M20.6,9.786,19.126,8.314l-8.1-8.1a.736.736,0,0,0-1.041,0l-8.1,8.1L.415,9.787a.736.736,0,0,0,1.041,1.041l.215-.216v9.266a.736.736,0,0,0,.736.736H18.6a.736.736,0,0,0,.736-.736V10.611l.216.216A.736.736,0,0,0,20.6,9.786Zm-7.883,9.356H8.3v-5.89h4.417Zm5.154,0H14.187V12.515a.736.736,0,0,0-.736-.736H7.561a.736.736,0,0,0-.736.736v6.626H3.143v-10l7.362-7.362,7.362,7.362Z" transform="translate(-0.208 0)" fill="#fff"/>
</svg>
