<svg xmlns="http://www.w3.org/2000/svg" width="25.635" height="32.813" viewBox="0 0 25.635 32.813">
  <path id="White_Bell_Icon" data-name="White Bell Icon" d="M78.527,26.184A5.108,5.108,0,0,1,77,24.069C75.68,21.236,75.4,17.245,75.4,14.4V14.36a9.344,9.344,0,0,0-5.409-8.469V3.665A3.638,3.638,0,0,0,66.394,0h-.3a3.638,3.638,0,0,0-3.6,3.665V5.891a9.344,9.344,0,0,0-5.409,8.5c0,2.849-.277,6.839-1.594,9.672a5.108,5.108,0,0,1-1.529,2.116.941.941,0,0,0-.507,1.066.968.968,0,0,0,.952.757h6.957a4.885,4.885,0,0,0,9.768,0H78.09a.968.968,0,0,0,.952-.757A.942.942,0,0,0,78.527,26.184ZM64.392,3.665a1.721,1.721,0,0,1,1.7-1.734h.3a1.721,1.721,0,0,1,1.7,1.734v1.6a9.046,9.046,0,0,0-3.706,0Zm1.851,27.3A3.016,3.016,0,0,1,63.261,28h5.973A3.016,3.016,0,0,1,66.243,30.97Zm3.82-4.9H56.569a10.149,10.149,0,0,0,.5-.887c1.271-2.547,1.917-6.177,1.917-10.789a7.263,7.263,0,1,1,14.524,0v.035c0,4.593.649,8.209,1.917,10.75a10.156,10.156,0,0,0,.5.887Z" transform="translate(-53.43)" fill="#fff"/>
</svg>
