<svg xmlns="http://www.w3.org/2000/svg" xmlns:xlink="http://www.w3.org/1999/xlink" width="200" height="200" viewBox="0 0 200 200">
  <defs>
    <clipPath id="clip-Data_Relationship">
      <rect width="200" height="200"/>
    </clipPath>
  </defs>
  <g id="Data_Relationship" data-name="Data Relationship" clip-path="url(#clip-Data_Relationship)">
    <g id="Group_34496" data-name="Group 34496" transform="translate(1394.175 -600.988) rotate(45)">
      <path id="Path_15814" data-name="Path 15814" d="M-372.628,1324.839c5.426-.077,10.511,2.207,14.744,6.367q9.581,9.413,19,18.985a21.759,21.759,0,0,1,4.159,25.112,23.711,23.711,0,0,1-4.758,6.315q-16.512,16.456-32.984,32.957a21.165,21.165,0,0,1-15.228,6.42,21.312,21.312,0,0,1-13.9-4.88c-.642-.517-.661-.885-.087-1.452q4.506-4.46,8.964-8.965a1.069,1.069,0,0,1,1.493-.188,6.93,6.93,0,0,0,8.546-1.391q16.671-16.677,33.336-33.354a7,7,0,0,0,.071-10.27q-9.413-9.5-18.919-18.915a7,7,0,0,0-10.267.091q-16.751,16.745-33.5,33.495a6.657,6.657,0,0,0-1.711,7.209,1.889,1.889,0,0,1-.565,2.251q-4.339,4.241-8.583,8.585c-.719.738-1.129.6-1.657-.139a21.585,21.585,0,0,1-4.123-14.554,21.549,21.549,0,0,1,6.63-14.036q16.738-16.687,33.439-33.409C-384.316,1326.886-379.195,1324.807-372.628,1324.839Z" transform="translate(-0.437 0)" fill="#fff" stroke="#1732a4" stroke-width="0.75" fill-rule="evenodd"/>
      <path id="Path_15815" data-name="Path 15815" d="M-464.545,1497.185a20.622,20.622,0,0,1-14.91-6.306q-9.685-9.533-19.227-19.213a21.509,21.509,0,0,1,.067-30.533q16.846-16.884,33.734-33.726a21.152,21.152,0,0,1,15.246-6.378,21.5,21.5,0,0,1,13.047,4.254c.719.516.79.919.112,1.584q-4.491,4.4-8.893,8.886a1.385,1.385,0,0,1-1.7.394,6.669,6.669,0,0,0-7.5,1.627q-11.37,11.333-22.709,22.7c-3.671,3.67-7.359,7.322-11,11.021a6.958,6.958,0,0,0-.018,9.871q9.565,9.655,19.219,19.222a6.989,6.989,0,0,0,10.038-.143q15.105-15.053,30.177-30.141,1.635-1.633,3.266-3.268a6.783,6.783,0,0,0,1.482-8.242,1.566,1.566,0,0,1,.394-2.118c2.831-2.786,5.6-5.635,8.388-8.461.9-.911,1.023-.923,1.806.063a21.218,21.218,0,0,1,4.525,16.6,21.314,21.314,0,0,1-6.378,12.592q-16.689,16.664-33.364,33.338A21.184,21.184,0,0,1-464.545,1497.185Z" transform="translate(0 -0.436)" fill="#fff" stroke="#1732a4" stroke-width="0.75" fill-rule="evenodd"/>
      <path id="Path_15816" data-name="Path 15816" d="M-378.519,1378.562a8.126,8.126,0,0,1-2.558,5.835q-11.542,11.552-23.09,23.1-20.4,20.4-40.8,40.789c-3.213,3.214-7.187,3.811-10.617,1.6a8.157,8.157,0,0,1-1.3-12.8q18.025-18.06,36.081-36.088,14.094-14.091,28.192-28.177a8.16,8.16,0,0,1,12.7,1.08A8.391,8.391,0,0,1-378.519,1378.562Z" transform="translate(-0.261 -0.26)" fill="#fff" stroke="#1732a4" stroke-width="0.75" fill-rule="evenodd"/>
    </g>
  </g>
</svg>
