<svg xmlns="http://www.w3.org/2000/svg" xmlns:xlink="http://www.w3.org/1999/xlink" width="200" height="200" viewBox="0 0 200 200">
  <defs>
    <clipPath id="clip-Download_Template">
      <rect width="200" height="200"/>
    </clipPath>
  </defs>
  <g id="Download_Template" data-name="Download Template" clip-path="url(#clip-Download_Template)">
    <g id="upload" transform="translate(-33.907)">
      <path id="Path_15668" data-name="Path 15668" d="M210.616,45.944,195.726,31.055V8.847A8.857,8.857,0,0,0,186.879,0H64.643a8.746,8.746,0,0,0-8.736,8.736V155.3a8.746,8.746,0,0,0,8.736,8.736h4.941V168.9a8.746,8.746,0,0,0,8.737,8.736H97.273a2.915,2.915,0,0,0,0-5.831H78.321a2.909,2.909,0,0,1-2.906-2.905V51.685a2.915,2.915,0,1,0-5.831,0V158.2H64.643a2.909,2.909,0,0,1-2.905-2.905V8.736a2.909,2.909,0,0,1,2.905-2.905H186.88A3.019,3.019,0,0,1,189.9,8.847V25.224L179.129,14.459a2.916,2.916,0,0,0-2.061-.854H78.321a8.746,8.746,0,0,0-8.737,8.736V54.419a2.915,2.915,0,1,0,5.831,0V22.341a2.909,2.909,0,0,1,2.906-2.905h95.831V48a2.915,2.915,0,0,0,2.915,2.915l28.572,0V168.9a2.909,2.909,0,0,1-2.905,2.905H184.009a2.915,2.915,0,0,0,0,5.831h18.725a8.746,8.746,0,0,0,8.736-8.736V48.005a2.916,2.916,0,0,0-.854-2.062Zm-30.633-.859V23.558l21.532,21.53Z" fill="#3975f9"/>
      <path id="Path_15669" data-name="Path 15669" d="M249.229,175.456H179.484a2.915,2.915,0,0,0,0,5.831h69.746a2.915,2.915,0,0,0,0-5.831Z" transform="translate(-73.757 -107.252)" fill="#3975f9"/>
      <path id="Path_15670" data-name="Path 15670" d="M249.229,219.688H179.484a2.915,2.915,0,1,0,0,5.831h69.746a2.915,2.915,0,1,0,0-5.831Z" transform="translate(-73.757 -134.29)" fill="#3975f9"/>
      <path id="Path_15671" data-name="Path 15671" d="M337.238,264.8H323.458a2.915,2.915,0,0,0,0,5.831h13.779a2.915,2.915,0,0,0,0-5.831Z" transform="translate(-161.765 -161.867)" fill="#3975f9"/>
      <path id="Path_15672" data-name="Path 15672" d="M221.729,270.633a2.915,2.915,0,1,0,0-5.831H179.484a2.915,2.915,0,1,0,0,5.831Z" transform="translate(-73.757 -161.867)" fill="#3975f9"/>
      <path id="Path_15673" data-name="Path 15673" d="M259.834,388.328l-7.772,7.771V367.915a2.915,2.915,0,0,0-5.831,0V396.1l-7.772-7.771a2.915,2.915,0,0,0-4.123,4.123L247.085,405.2a2.916,2.916,0,0,0,4.123,0l12.749-12.748a2.915,2.915,0,0,0-4.123-4.123Z" transform="translate(-108.548 -223.116)" fill="#3975f9"/>
      <path id="Path_15674" data-name="Path 15674" d="M216.2,323.61a36.616,36.616,0,1,0,36.618,36.616A36.659,36.659,0,0,0,216.2,323.61Zm0,67.4a30.785,30.785,0,1,1,30.787-30.785A30.821,30.821,0,0,1,216.2,391.011Z" transform="translate(-75.598 -197.814)" fill="#3975f9"/>
    </g>
  </g>
</svg>
