<svg xmlns="http://www.w3.org/2000/svg" xmlns:xlink="http://www.w3.org/1999/xlink" width="200" height="200" viewBox="0 0 200 200">
  <defs>
    <clipPath id="clip-Settings">
      <rect width="200" height="200"/>
    </clipPath>
  </defs>
  <g id="Settings" clip-path="url(#clip-Settings)">
    <g id="settings-2" data-name="settings" transform="translate(-0.001 0)">
      <path id="Path_14985" data-name="Path 14985" d="M105.852,199.2H93.35a18.359,18.359,0,0,1-18.338-18.338v-4.23a80.417,80.417,0,0,1-12.488-5.184l-3,3a18.338,18.338,0,0,1-25.937,0l-8.836-8.836a18.337,18.337,0,0,1,0-25.937l3-3a80.426,80.426,0,0,1-5.184-12.488H18.338A18.359,18.359,0,0,1,0,105.852V93.35A18.359,18.359,0,0,1,18.338,75.012h4.229a80.441,80.441,0,0,1,5.184-12.488l-3-3a18.338,18.338,0,0,1,0-25.937l8.837-8.836a18.336,18.336,0,0,1,25.937,0l2.995,2.995a80.5,80.5,0,0,1,12.488-5.184V18.338A18.359,18.359,0,0,1,93.35,0h12.5A18.359,18.359,0,0,1,124.19,18.338v4.23a80.419,80.419,0,0,1,12.488,5.184l3-3a18.338,18.338,0,0,1,25.937,0l8.836,8.836a18.337,18.337,0,0,1,0,25.937l-3,3a80.423,80.423,0,0,1,5.184,12.488h4.229A18.359,18.359,0,0,1,199.2,93.35v12.5a18.359,18.359,0,0,1-18.338,18.338h-4.229a80.439,80.439,0,0,1-5.184,12.488l3,3a18.338,18.338,0,0,1,0,25.937l-8.837,8.836a18.336,18.336,0,0,1-25.937,0l-2.995-2.995a80.5,80.5,0,0,1-12.488,5.184v4.23A18.359,18.359,0,0,1,105.852,199.2ZM64.475,159.194a68.791,68.791,0,0,0,17.831,7.4,5.836,5.836,0,0,1,4.378,5.651v8.617a6.674,6.674,0,0,0,6.666,6.666h12.5a6.674,6.674,0,0,0,6.666-6.666v-8.617A5.836,5.836,0,0,1,116.9,166.6a68.791,68.791,0,0,0,17.831-7.4,5.836,5.836,0,0,1,7.1.9l6.1,6.1a6.664,6.664,0,0,0,9.425,0l8.842-8.842a6.665,6.665,0,0,0,0-9.425l-6.106-6.106a5.836,5.836,0,0,1-.9-7.1,68.78,68.78,0,0,0,7.4-17.831,5.836,5.836,0,0,1,5.651-4.377h8.617a6.674,6.674,0,0,0,6.666-6.666V93.35a6.674,6.674,0,0,0-6.666-6.666h-8.617a5.836,5.836,0,0,1-5.651-4.377,68.793,68.793,0,0,0-7.4-17.831,5.836,5.836,0,0,1,.9-7.1l6.1-6.1a6.664,6.664,0,0,0,0-9.425l-8.842-8.842a6.664,6.664,0,0,0-9.425,0l-6.106,6.106a5.836,5.836,0,0,1-7.1.9,68.792,68.792,0,0,0-17.831-7.4,5.836,5.836,0,0,1-4.378-5.651V18.338a6.674,6.674,0,0,0-6.666-6.666h-12.5a6.674,6.674,0,0,0-6.666,6.666v8.617a5.836,5.836,0,0,1-4.378,5.651,68.792,68.792,0,0,0-17.831,7.4,5.837,5.837,0,0,1-7.1-.9l-6.1-6.1a6.664,6.664,0,0,0-9.425,0l-8.842,8.842a6.665,6.665,0,0,0,0,9.425l6.106,6.106a5.836,5.836,0,0,1,.9,7.1,68.779,68.779,0,0,0-7.4,17.831,5.836,5.836,0,0,1-5.651,4.377H18.338a6.674,6.674,0,0,0-6.666,6.666v12.5a6.674,6.674,0,0,0,6.666,6.666h8.617a5.836,5.836,0,0,1,5.651,4.377,68.792,68.792,0,0,0,7.4,17.831,5.836,5.836,0,0,1-.9,7.1l-6.1,6.1a6.664,6.664,0,0,0,0,9.425l8.842,8.842a6.664,6.664,0,0,0,9.425,0l6.106-6.106A5.864,5.864,0,0,1,64.475,159.194Z" transform="translate(0 0)" fill="#fff" stroke="#fff" stroke-width="0.5"/>
      <path id="Path_14986" data-name="Path 14986" d="M187.942,231.284a43.342,43.342,0,1,1,43.342-43.342A43.391,43.391,0,0,1,187.942,231.284Zm0-75.012a31.67,31.67,0,1,0,31.67,31.67A31.705,31.705,0,0,0,187.942,156.272Z" transform="translate(-88.341 -88.341)" fill="#fff" stroke="#fff" stroke-width="0.5"/>
    </g>
  </g>
</svg>
